<?xml version="1.0" encoding="utf-8"?>
<!-- Generator: Adobe Illustrator 21.0.0, SVG Export Plug-In . SVG Version: 6.00 Build 0)  -->
<svg version="1.1" id="MARCA" xmlns="http://www.w3.org/2000/svg" xmlns:xlink="http://www.w3.org/1999/xlink" x="0px" y="0px"
	 viewBox="0 0 694.2 343.8" style="enable-background:new 0 0 694.2 343.8;" xml:space="preserve">
<style type="text/css">
	.st0{fill:#3E3838;}	
</style>
<g>
	<g>
		<path class="st0" d="M328.9,143.9h-19.4v69.5c0,1.3-1.1,2.4-2.4,2.4h-15.7c-1.3,0-2.4-1.1-2.4-2.4v-69.5h-19.5
			c-1.3,0-2.4-1-2.4-2.3v-12.3c0-1.3,1.1-2.3,2.4-2.3h59.3c1.3,0,2.5,1,2.5,2.3v12.3C331.4,143,330.2,143.9,328.9,143.9z"/>
		<path class="st0" d="M371.6,217c-19.7,0-35.4-10.6-35.4-38.4v-14.2c0-27.7,15.7-38.4,35.4-38.4c19.7,0,35.4,10.6,35.4,38.4v14.2
			C406.9,206.3,391.3,217,371.6,217z M386.4,164.4c0-14.3-4.8-20.4-14.8-20.4c-10,0-14.7,6.1-14.7,20.4v14.2
			c0,14.3,4.7,20.4,14.7,20.4c10,0,14.8-6.1,14.8-20.4V164.4z"/>
	</g>
	<g>
		<path class="st0" d="M473.2,143.9h-19.4v69.5c0,1.3-1.1,2.4-2.4,2.4h-15.7c-1.3,0-2.4-1.1-2.4-2.4v-69.5h-19.5
			c-1.3,0-2.4-1-2.4-2.3v-12.3c0-1.3,1.1-2.3,2.4-2.3h59.3c1.3,0,2.5,1,2.5,2.3v12.3C475.7,143,474.5,143.9,473.2,143.9z"/>
	</g>
	<g>
		<path class="st0" d="M557.2,129.6l-17.8,74.1c-2.7,11.5-11.5,13.3-19.7,13.3c-8.2,0-17.1-1.8-19.8-13.3L482,129.6
			c0-0.2-0.1-0.4-0.1-0.6c0-1.1,1-1.9,2.2-1.9h16.6c1.2,0,2.1,1,2.4,2.2l14.9,69c0.2,1.3,0.6,1.8,1.7,1.8c1.1,0,1.4-0.5,1.7-1.8
			l14.9-69c0.2-1.2,1.1-2.2,2.3-2.2h16.7c1.2,0,2,0.7,2,1.9C557.3,129.1,557.2,129.4,557.2,129.6z"/>
	</g>
	<g>
		<path class="st0" d="M590.9,217c-9.4,0-16.5-1.1-22.6-2.6c-1.2-0.4-2.4-1.1-2.4-2.4v-11.7c0-1.7,1-2.3,2.2-2.3c0.1,0,0.2,0,0.4,0
			c4.9,0.5,18,1.4,22.7,1.4c8.3,0,10.6-2.6,10.6-8.4c0-3.5-1.7-5.4-7.9-9.1l-16.5-9.8c-11.1-6.6-14.1-14.1-14.1-22.8
			c0-13.1,7.4-23.3,30.6-23.3c8.7,0,20.8,1.4,25.3,2.6c0.9,0.2,1.8,0.8,1.8,2.2v12.1c0,1.1-0.5,2-2,2c0,0-0.1,0-0.2,0
			c-3.3-0.2-17.2-1.3-25.3-1.3c-6.8,0-9.3,2-9.3,6.3c0,3.3,1.6,4.9,8,8.4l15.3,8.2c12.4,6.7,16.1,14.6,16.1,24.3
			C623.5,203.5,615.1,217,590.9,217z"/>
	</g>
</g>
<g>
	<path class="st0" d="M151.7,90.9c-44.7,0-81,36.3-81,81c0,44.7,36.3,81,81,81c44.7,0,81-36.3,81-81
		C232.7,127.2,196.4,90.9,151.7,90.9z M206.3,201.9c-2.1,0.7-14.3-1.6-28.5-5c-0.1,13.9-1.1,26.8-3,28.5
		c-5.2,1.8-72.7-15.3-77.8-19.7c-4-5.7-4-61.7,0-65.4c2.1-0.7,14.3,1.6,28.5,5c0.1-13.9,1.1-26.8,3-28.5
		c5.1-1.8,72.7,15.3,77.8,19.7C210.3,142.2,210.3,198.2,206.3,201.9z"/>
	<path class="st0" d="M174.8,160.1c-3.1-2.6-28.3-9.8-49.3-14.7c-0.2,16.2,0.8,33.8,3,36.9c3.1,2.6,28.3,9.8,49.3,14.7
		C177.9,180.7,176.9,163.1,174.8,160.1z"/>
</g>
</svg>
